<svg width="24" height="24" viewBox="0 0 24 24" fill="none" xmlns="http://www.w3.org/2000/svg">
<path fill-rule="evenodd" clip-rule="evenodd" d="M3.6 20.4C3.6 20.0818 3.72643 19.7765 3.95147 19.5515C4.17651 19.3265 4.48174 19.2 4.8 19.2H19.2C19.5183 19.2 19.8235 19.3265 20.0485 19.5515C20.2736 19.7765 20.4 20.0818 20.4 20.4C20.4 20.7183 20.2736 21.0235 20.0485 21.2486C19.8235 21.4736 19.5183 21.6 19.2 21.6H4.8C4.48174 21.6 4.17651 21.4736 3.95147 21.2486C3.72643 21.0235 3.6 20.7183 3.6 20.4ZM7.5516 11.1516C7.77663 10.9267 8.0818 10.8003 8.4 10.8003C8.7182 10.8003 9.02336 10.9267 9.2484 11.1516L10.8 12.7032V3.60002C10.8 3.28176 10.9264 2.97654 11.1515 2.7515C11.3765 2.52645 11.6817 2.40002 12 2.40002C12.3183 2.40002 12.6235 2.52645 12.8485 2.7515C13.0736 2.97654 13.2 3.28176 13.2 3.60002V12.7032L14.7516 11.1516C14.8623 11.037 14.9947 10.9456 15.1411 10.8827C15.2875 10.8198 15.445 10.7867 15.6043 10.7853C15.7637 10.7839 15.9217 10.8143 16.0691 10.8746C16.2166 10.935 16.3506 11.0241 16.4633 11.1368C16.5759 11.2494 16.665 11.3834 16.7254 11.5309C16.7857 11.6784 16.8161 11.8364 16.8147 11.9957C16.8133 12.155 16.7802 12.3125 16.7173 12.4589C16.6544 12.6053 16.563 12.7377 16.4484 12.8484L12.8484 16.4484C12.6234 16.6734 12.3182 16.7998 12 16.7998C11.6818 16.7998 11.3766 16.6734 11.1516 16.4484L7.5516 12.8484C7.32663 12.6234 7.20025 12.3182 7.20025 12C7.20025 11.6818 7.32663 11.3767 7.5516 11.1516V11.1516Z" fill="#FAFAFA"/>
</svg>
