<svg width="20" height="20" viewBox="0 0 20 20" fill="none" xmlns="http://www.w3.org/2000/svg">
<path d="M15 16.25C15 17.6313 13.6 18.75 11.875 18.75C10.15 18.75 8.75 17.6313 8.75 16.25C8.75 14.8687 10.15 13.75 11.875 13.75C13.6 13.75 15 14.8687 15 16.25Z" fill="#FAFAFA"/>
<path fill-rule="evenodd" clip-rule="evenodd" d="M15 3.75V16.25H13.75V3.75H15Z" fill="#FAFAFA"/>
<path d="M13.75 3.525C13.7502 3.23614 13.8504 2.95625 14.0336 2.73292C14.2168 2.5096 14.4717 2.35662 14.755 2.3L18.505 1.55C18.6863 1.51377 18.8733 1.51819 19.0527 1.56296C19.2321 1.60773 19.3993 1.69172 19.5423 1.80889C19.6852 1.92605 19.8005 2.07348 19.8796 2.24054C19.9588 2.4076 19.9999 2.59014 20 2.775V5L13.75 6.25V3.525Z" fill="#FAFAFA"/>
<path fill-rule="evenodd" clip-rule="evenodd" d="M0 14.375C0 14.2092 0.065848 14.0503 0.183058 13.9331C0.300269 13.8158 0.45924 13.75 0.625 13.75H5C5.16576 13.75 5.32473 13.8158 5.44194 13.9331C5.55915 14.0503 5.625 14.2092 5.625 14.375C5.625 14.5408 5.55915 14.6997 5.44194 14.8169C5.32473 14.9342 5.16576 15 5 15H0.625C0.45924 15 0.300269 14.9342 0.183058 14.8169C0.065848 14.6997 0 14.5408 0 14.375ZM0 9.375C0 9.20924 0.065848 9.05027 0.183058 8.93306C0.300269 8.81585 0.45924 8.75 0.625 8.75H10C10.1658 8.75 10.3247 8.81585 10.4419 8.93306C10.5592 9.05027 10.625 9.20924 10.625 9.375C10.625 9.54076 10.5592 9.69973 10.4419 9.81694C10.3247 9.93415 10.1658 10 10 10H0.625C0.45924 10 0.300269 9.93415 0.183058 9.81694C0.065848 9.69973 0 9.54076 0 9.375ZM0 4.375C0 4.20924 0.065848 4.05027 0.183058 3.93306C0.300269 3.81585 0.45924 3.75 0.625 3.75H10C10.1658 3.75 10.3247 3.81585 10.4419 3.93306C10.5592 4.05027 10.625 4.20924 10.625 4.375C10.625 4.54076 10.5592 4.69973 10.4419 4.81694C10.3247 4.93415 10.1658 5 10 5H0.625C0.45924 5 0.300269 4.93415 0.183058 4.81694C0.065848 4.69973 0 4.54076 0 4.375Z" fill="#FAFAFA"/>
</svg>
