<svg width="24" height="24" viewBox="0 0 24 24" fill="none" xmlns="http://www.w3.org/2000/svg">
<path d="M12.375 19.5089C12.1352 19.5088 11.9017 19.4317 11.7089 19.2891L11.678 19.2652L7.39078 15.7495H4.125C3.82663 15.7495 3.54048 15.631 3.3295 15.42C3.11853 15.2091 3 14.9229 3 14.6245V9.375C3 9.07664 3.11853 8.79049 3.3295 8.57951C3.54048 8.36853 3.82663 8.25 4.125 8.25H7.38984L11.677 4.73438L11.708 4.71047C11.8756 4.58706 12.0741 4.51257 12.2815 4.49528C12.489 4.47799 12.6971 4.51858 12.8828 4.61254C13.0686 4.70649 13.2246 4.85013 13.3335 5.02747C13.4425 5.20481 13.5001 5.4089 13.5 5.61704V18.383C13.5 18.6813 13.3815 18.9675 13.1705 19.1785C12.9595 19.3894 12.6734 19.508 12.375 19.508V19.5089ZM16.5 15.75C16.3721 15.7499 16.2463 15.7172 16.1346 15.6548C16.023 15.5924 15.9291 15.5025 15.862 15.3936C15.7948 15.2847 15.7567 15.1604 15.7511 15.0326C15.7455 14.9049 15.7728 14.7778 15.8302 14.6634C16.275 13.7775 16.5005 12.8822 16.5005 12C16.5005 11.0925 16.282 10.2225 15.8325 9.34079C15.7464 9.16411 15.733 8.96068 15.7954 8.77428C15.8577 8.58788 15.9907 8.43339 16.1658 8.34407C16.3409 8.25475 16.5441 8.23772 16.7316 8.29666C16.9191 8.3556 17.0759 8.48579 17.1684 8.65922C17.7281 9.7575 18 10.8502 18 12C18 13.117 17.7187 14.2397 17.1703 15.3366C17.1079 15.4609 17.0122 15.5653 16.8938 15.6383C16.7754 15.7114 16.6391 15.75 16.5 15.75Z" fill="#FAFAFA"/>
<path d="M18.75 18C18.6183 18.0001 18.4889 17.9655 18.3748 17.8998C18.2607 17.834 18.1659 17.7393 18.1 17.6253C18.0341 17.5112 17.9994 17.3819 17.9994 17.2502C17.9993 17.1185 18.034 16.9891 18.0998 16.875C18.9844 15.3305 19.5 14.0367 19.5 12C19.5 9.93187 18.9872 8.6475 18.1017 7.12734C18.0103 6.95594 17.989 6.75576 18.0422 6.56895C18.0955 6.38214 18.2191 6.22327 18.3871 6.12578C18.5551 6.02829 18.7544 5.99978 18.943 6.04627C19.1316 6.09275 19.2948 6.2106 19.3983 6.375C20.3869 8.07 21 9.60375 21 12C21 14.3606 20.3878 15.9019 19.4006 17.625C19.3347 17.7392 19.2398 17.834 19.1256 17.8998C19.0114 17.9656 18.8818 18.0002 18.75 18Z" fill="#FAFAFA"/>
</svg>
