<svg width="18" height="18" viewBox="0 0 18 18" fill="none" xmlns="http://www.w3.org/2000/svg">
<path fill-rule="evenodd" clip-rule="evenodd" d="M0 3.9375C0 3.78832 0.0592632 3.64524 0.164752 3.53975C0.270242 3.43426 0.413316 3.375 0.5625 3.375H1.125C3.60225 3.375 5.43038 4.77 6.60825 6.09525C7.1595 6.71625 7.58138 7.335 7.875 7.81875C8.1675 7.335 8.5905 6.71625 9.14175 6.09525C10.3196 4.77 12.1477 3.375 14.625 3.375V4.5C12.6023 4.5 11.0554 5.63625 9.98325 6.84225C9.40354 7.49887 8.90565 8.22342 8.5005 9C8.9053 9.77652 9.40281 10.5011 9.98213 11.1578C11.0565 12.3638 12.6045 13.5 14.625 13.5V14.625C12.1477 14.625 10.3196 13.23 9.14175 11.9047C8.6687 11.3694 8.24475 10.7926 7.875 10.1813C7.5825 10.665 7.1595 11.2837 6.60825 11.9047C5.43038 13.23 3.60225 14.625 1.125 14.625H0.5625C0.413316 14.625 0.270242 14.5657 0.164752 14.4602C0.0592632 14.3548 0 14.2117 0 14.0625C0 13.9133 0.0592632 13.7702 0.164752 13.6648C0.270242 13.5593 0.413316 13.5 0.5625 13.5H1.125C3.14775 13.5 4.69462 12.3638 5.76675 11.1578C6.34646 10.5011 6.84435 9.77658 7.2495 9C6.8447 8.22348 6.34719 7.49894 5.76787 6.84225C4.6935 5.63625 3.1455 4.5 1.125 4.5H0.5625C0.413316 4.5 0.270242 4.44074 0.164752 4.33525C0.0592632 4.22976 0 4.08668 0 3.9375Z" fill="#FAFAFA"/>
<path d="M14.625 6.14926V1.72576C14.625 1.67231 14.6403 1.61998 14.669 1.57489C14.6976 1.5298 14.7386 1.49382 14.787 1.47116C14.8354 1.44849 14.8892 1.44009 14.9422 1.44692C14.9952 1.45376 15.0452 1.47555 15.0862 1.50976L17.7413 3.72151C17.8763 3.83401 17.8763 4.04101 17.7413 4.15351L15.0862 6.36526C15.0452 6.39946 14.9952 6.42125 14.9422 6.42809C14.8892 6.43493 14.8354 6.42652 14.787 6.40386C14.7386 6.38119 14.6976 6.34521 14.669 6.30012C14.6403 6.25503 14.625 6.2027 14.625 6.14926ZM14.625 16.2743V11.8508C14.625 11.7973 14.6403 11.745 14.669 11.6999C14.6976 11.6548 14.7386 11.6188 14.787 11.5962C14.8354 11.5735 14.8892 11.5651 14.9422 11.5719C14.9952 11.5788 15.0452 11.6006 15.0862 11.6348L17.7413 13.8465C17.8763 13.959 17.8763 14.166 17.7413 14.2785L15.0862 16.4903C15.0452 16.5245 14.9952 16.5463 14.9422 16.5531C14.8892 16.5599 14.8354 16.5515 14.787 16.5289C14.7386 16.5062 14.6976 16.4702 14.669 16.4251C14.6403 16.38 14.625 16.3277 14.625 16.2743Z" fill="#FAFAFA"/>
</svg>
